<?xml version="1.0" encoding="UTF-8"?>
<!DOCTYPE svg PUBLIC "-//W3C//DTD SVG 1.1//EN" "http://www.w3.org/Graphics/SVG/1.1/DTD/svg11.dtd">
<svg version="1.1" xmlns="http://www.w3.org/2000/svg" xmlns:xlink="http://www.w3.org/1999/xlink" x="0" y="0" width="592.5" height="742.5" viewBox="0, 0, 592.5, 742.5">
  <defs>
    <clipPath id="Clip_1">
      <path d="M0.15,0.45 L590.985,0.45 L590.985,742.5 L0.15,742.5 z"/>
    </clipPath>
    <clipPath id="Clip_2">
      <path d="M0.15,0.45 L590.985,0.45 L590.985,742.5 L0.15,742.5 z"/>
    </clipPath>
  </defs>
  <g id="Layer_1">
    <g>
      <path d="M306.04,669.377 C301.265,681.05 290.122,703.335 292.245,716.07 C294.367,728.802 302.853,741.005 352.728,739.412 C402.605,737.822 399.953,733.047 401.015,723.495 C402.075,713.945 399.953,709.175 396.24,703.867 C392.522,698.56 382.973,687.947 373.423,688.477 C373.423,684.232 369.177,667.255 369.177,667.255 L306.04,669.377" fill="#E6E7B0"/>
      <path d="M181.353,675.745 C165.965,682.112 152.17,688.478 145.273,691.663 C133.6,691.133 125.11,691.13 117.683,698.028 C110.255,704.927 105.478,733.575 122.458,737.823 C139.435,742.068 152.17,743.658 163.842,741.005 C175.515,738.355 186.128,737.823 197.27,734.638 C208.413,731.455 229.37,730.728 239.185,721.378 C250.327,710.763 251.92,684.765 240.248,673.622 C223.268,673.622 181.353,675.745 181.353,675.745" fill="#E6E7B0"/>
    </g>
    <path d="M110.582,669.81 C110.582,680.068 102.267,688.383 92.01,688.383 C81.75,688.383 73.435,680.068 73.435,669.81 L73.435,576.932 C73.435,566.677 81.75,558.36 92.01,558.36 C102.267,558.36 110.582,566.677 110.582,576.932 L110.582,669.81" fill="#543423"/>
    <path d="M92.01,559.61 C82.455,559.61 74.682,567.38 74.682,576.932 L74.682,669.81 C74.682,679.362 82.455,687.133 92.01,687.133 C101.562,687.133 109.332,679.362 109.332,669.81 L109.332,576.932 C109.332,567.38 101.562,559.61 92.01,559.61 z M92.01,689.633 C81.077,689.633 72.185,680.74 72.185,669.81 L72.185,576.932 C72.185,566.003 81.077,557.11 92.01,557.11 C102.94,557.11 111.832,566.003 111.832,576.932 L111.832,669.81 C111.832,680.74 102.94,689.633 92.01,689.633" fill="#2C2E2D"/>
    <path d="M521.29,669.81 C521.29,680.068 512.977,688.383 502.712,688.383 C492.462,688.383 484.142,680.068 484.142,669.81 L484.142,576.932 C484.142,566.677 492.462,558.36 502.712,558.36 C512.977,558.36 521.29,566.677 521.29,576.932 L521.29,669.81" fill="#543423"/>
    <path d="M502.712,559.61 C493.163,559.61 485.392,567.38 485.392,576.932 L485.392,669.81 C485.392,679.362 493.163,687.133 502.712,687.133 C512.268,687.133 520.04,679.362 520.04,669.81 L520.04,576.932 C520.04,567.38 512.268,559.61 502.712,559.61 z M502.712,689.633 C491.783,689.633 482.892,680.74 482.892,669.81 L482.892,576.932 C482.892,566.003 491.783,557.11 502.712,557.11 C513.645,557.11 522.54,566.003 522.54,576.932 L522.54,669.81 C522.54,680.74 513.645,689.633 502.712,689.633" fill="#2C2E2D"/>
    <path d="M541.4,294.073 C541.4,319.658 520.658,340.4 495.073,340.4 L105.038,340.4 C79.453,340.4 58.71,319.658 58.71,294.073 L42.365,226.458 C42.365,200.87 63.108,180.128 88.695,180.128 C88.695,180.128 130.418,85.205 305.51,85.205 C423.298,85.205 511.415,180.128 511.415,180.128 C537.005,180.128 557.747,200.87 557.747,226.458 L541.4,294.073" fill="#B18F46"/>
    <path d="M43.615,226.31 L59.96,294.073 C59.96,318.93 80.183,339.15 105.038,339.15 L495.073,339.15 C519.927,339.15 540.15,318.93 540.15,294.073 L540.185,293.777 L556.497,226.31 C556.417,201.52 536.225,181.378 511.415,181.378 L510.87,181.378 L510.5,180.977 C509.62,180.03 421.38,86.455 305.51,86.455 C133.225,86.455 90.255,179.688 89.84,180.63 L89.51,181.378 L88.695,181.378 C63.888,181.378 43.698,201.52 43.615,226.31 z M495.073,341.65 L105.038,341.65 C78.853,341.65 57.54,320.39 57.46,294.223 L41.115,226.458 C41.115,200.49 62.028,179.312 87.895,178.882 C89.958,174.61 101.268,153.27 130.703,131.658 C160.338,109.895 214.723,83.955 305.51,83.955 C418.605,83.955 505.51,172.16 511.955,178.88 C537.945,179.167 558.997,200.4 558.997,226.458 L558.963,226.75 L542.65,294.223 C542.57,320.39 521.255,341.65 495.073,341.65" fill="#2C2E2D"/>
    <path d="M547.943,550.398 C547.943,567.41 527.2,581.203 501.61,581.203 L98.503,581.203 C72.918,581.203 52.175,567.41 52.175,550.398 L58.713,475.808 C58.713,458.793 79.455,445.003 105.043,445.003 L495.075,445.003 C520.663,445.003 541.405,458.793 541.405,475.808 L547.943,550.398" fill="#B18F46"/>
    <path d="M105.043,446.253 C80.185,446.253 59.963,459.513 59.963,475.808 L53.42,550.508 C53.425,566.695 73.648,579.953 98.503,579.953 L501.61,579.953 C526.468,579.953 546.693,566.695 546.693,550.398 L540.16,475.918 C540.155,459.513 519.932,446.253 495.075,446.253 L105.043,446.253 z M501.61,582.453 L98.503,582.453 C72.27,582.453 50.925,568.073 50.925,550.398 L57.468,475.698 C57.463,458.133 78.808,443.753 105.043,443.753 L495.075,443.753 C521.31,443.753 542.655,458.133 542.655,475.808 L549.188,550.288 C549.193,568.073 527.848,582.453 501.61,582.453" fill="#2C2E2D"/>
    <path d="M200.355,506.023 C191.64,513.65 179.653,556.143 178.563,588.833 C177.473,621.518 168.755,676 168.755,676 C205.803,673.825 250.475,671.64 250.475,671.64 C246.12,653.115 252.658,596.463 255.923,575.758 C259.195,555.053 274.993,516.093 274.993,516.093 C283.083,515.653 290.255,515.345 295.42,515.285 C299.66,515.233 319.938,516.103 319.938,516.103 C311.223,523.725 309.312,551.79 308.228,584.473 C307.135,617.163 298.42,671.643 298.42,671.643 C335.465,669.468 380.14,667.283 380.14,667.283 C375.777,648.76 382.315,592.103 385.585,571.395 C388.855,550.695 400.838,525.088 400.838,525.088 L406.562,520.188 C417.453,516.648 425.092,485.043 416.365,485.043 L209.615,485.043 L200.355,506.023" fill="#636C6E"/>
    <path d="M210.43,486.293 L201.177,506.962 C192.972,514.143 180.91,555.955 179.81,588.875 C178.835,618.2 171.647,665.557 170.23,674.663 C202.797,672.76 241.057,670.855 248.952,670.463 C245.195,650.578 251.245,597.403 254.687,575.56 C257.945,554.955 273.675,516.015 273.832,515.625 L274.13,514.888 L274.922,514.845 C283.727,514.365 290.62,514.093 295.405,514.035 L295.842,514.033 C300.822,514.033 319.21,514.823 319.992,514.852 L323.112,514.987 L320.76,517.042 C312.167,524.56 310.472,554.497 309.477,584.513 C308.497,613.843 301.31,661.2 299.895,670.305 C332.46,668.403 370.722,666.495 378.615,666.105 C374.787,645.758 381.41,589.823 384.35,571.2 C387.607,550.562 399.585,524.818 399.705,524.557 L400.025,524.138 L406.177,518.997 C413.872,516.495 420.055,497.985 418.73,489.62 C418.38,487.415 417.585,486.293 416.365,486.293 L210.43,486.293 z M167.275,677.338 L167.52,675.802 C167.607,675.258 176.24,621.023 177.312,588.79 C178.357,557.473 189.822,514.078 199.32,505.273 L208.802,483.793 L416.365,483.793 C417.847,483.793 420.447,484.5 421.2,489.23 C422.672,498.525 416.192,518.055 407.195,521.292 L401.86,525.86 C400.637,528.518 389.855,552.367 386.82,571.593 C383.827,590.55 376.972,648.375 381.355,666.997 L381.7,668.458 L380.202,668.53 C379.755,668.552 335.107,670.74 298.492,672.89 L296.938,672.98 L297.185,671.445 C297.272,670.9 305.9,616.667 306.977,584.43 C308.147,549.218 310.27,526.422 317.202,517.24 C311.767,517.015 299.642,516.533 295.842,516.533 L295.435,516.535 C290.83,516.59 284.245,516.845 275.855,517.3 C273.675,522.758 260.122,557.182 257.157,575.953 C254.167,594.915 247.317,652.745 251.692,671.355 L252.035,672.815 L250.537,672.888 C250.09,672.91 205.447,675.098 168.827,677.247 L167.275,677.338" fill="#2C2E2D"/>
    <path d="M190.76,162.84 C195.318,178.032 209.435,180.495 220.735,179.562 C232.255,178.62 226.56,162.71 223.48,151.31 C219.3,135.885 207.878,127.452 200.298,129.625 C184.683,134.127 187.36,151.527 190.76,162.84" fill="#F8E8DA"/>
    <path d="M202.78,130.538 C202.033,130.538 201.31,130.635 200.64,130.827 C196.433,132.042 193.373,134.355 191.548,137.702 C188.538,143.225 188.675,151.56 191.958,162.478 C195.928,175.708 207.57,178.485 216.638,178.485 C217.933,178.485 219.278,178.43 220.633,178.318 C222.75,178.145 224.223,177.417 225.143,176.098 C227.99,172 225.333,162.548 223.195,154.955 C222.875,153.82 222.563,152.708 222.273,151.637 C218.695,138.43 209.553,130.538 202.78,130.538 z M216.638,180.985 C206.72,180.985 193.975,177.9 189.563,163.197 C186.083,151.618 186.01,142.635 189.35,136.508 C191.508,132.55 195.073,129.83 199.95,128.425 C200.845,128.167 201.798,128.038 202.78,128.038 C210.385,128.038 220.648,136.08 224.685,150.982 C224.975,152.048 225.285,153.152 225.603,154.28 C228,162.8 230.718,172.458 227.193,177.525 C225.843,179.47 223.703,180.575 220.838,180.81 C219.415,180.928 218,180.985 216.638,180.985" fill="#2C2E2D"/>
    <path d="M260.952,241.982 C260.952,241.982 280.045,253.402 299.79,252.03 C308.287,251.435 332.837,245.632 341.352,238.03 C346.887,243.092 361.12,264.425 361.12,264.425 C349.702,269.132 315.93,279.462 301.36,279.098 C286.783,278.735 251.645,270.565 247.762,269.95 C249.477,265.612 260.952,241.982 260.952,241.982" fill="#795A8D"/>
    <path d="M265.41,243.782 C265.41,243.782 265.18,271.222 274.75,271.79 C281.592,272.195 300.875,267.69 300.875,267.69 C300.875,267.69 322.263,272.76 328.483,271.79 C336.337,270.565 336.28,241.865 336.315,241.33" fill="#FFFFFE"/>
    <path d="M326.57,273.158 C319.068,273.158 303.297,269.54 300.872,268.975 C298.348,269.555 281.232,273.415 274.677,273.038 C264.22,272.418 264.135,246.703 264.16,243.773 L266.66,243.793 C266.605,250.605 267.985,270.135 274.825,270.543 C281.417,270.923 300.402,266.518 300.592,266.473 L300.878,266.405 L301.163,266.475 C301.372,266.525 322.392,271.493 328.29,270.555 C332.105,269.96 334.825,258.343 335.06,241.648 L335.068,241.25 L337.562,241.41 L337.557,241.685 C337.4,252.898 336.04,271.875 328.675,273.025 C328.087,273.115 327.378,273.158 326.57,273.158" fill="#2C2E2D"/>
    <path d="M405.09,158.54 C404.033,173.745 390.92,178.57 379.775,179.682 C368.438,180.81 370.418,164.74 370.893,153.377 C371.518,138.035 380.73,128.027 388.533,128.752 C404.647,130.265 405.883,147.23 405.09,158.54" fill="#F8E8DA"/>
    <path d="M387.728,129.967 C380.663,129.967 372.713,139.395 372.143,153.43 C372.098,154.485 372.04,155.577 371.98,156.695 C371.598,164.088 371.12,173.288 374.52,176.868 C375.738,178.15 377.398,178.665 379.65,178.438 C390.125,177.395 402.825,173.08 403.843,158.455 C405.093,140.65 399.9,131.075 388.415,129.997 C388.188,129.975 387.96,129.967 387.728,129.967 z M378.678,180.988 C376.228,180.988 374.218,180.183 372.708,178.588 C368.568,174.23 369.058,164.845 369.485,156.565 C369.543,155.458 369.6,154.372 369.643,153.325 C370.3,137.275 380.315,126.757 388.645,127.507 C401.563,128.72 407.68,139.482 406.338,158.628 C405.448,171.395 396.058,179.315 379.898,180.925 C379.478,180.967 379.068,180.988 378.678,180.988" fill="#2C2E2D"/>
    <g>
      <path d="M368.517,111.283 C386.405,214.815 343.832,251.667 304.315,251.667 C262.18,251.667 229.688,227.042 224.075,168.497 C222.777,154.947 221.26,134.565 222.86,120.902 C224.185,109.517 247.01,58.412 286.057,50.885 C325.105,43.357 356.565,57.135 368.517,111.283" fill="#F8E8DA"/>
      <path d="M407.777,87.592 C410.378,46.597 391.462,29.095 362.895,38.095 C351.27,4.025 327.312,2.595 311.478,1.637 C225.298,-3.568 198.605,54.017 199.26,64.115 C199.675,70.652 177.93,84.925 182.148,83.215 C186.085,81.62 206.967,75.287 214.495,73.145 C205.29,76.615 196.758,92.798 196.2,101.402 C195.878,106.392 194.512,120.425 198.16,128.955 C198.355,129.412 198.565,129.855 198.79,130.277 L214.78,134.55 L217.167,137.335 C217.027,141.033 217.92,135.322 218.693,137.807 C227.795,140.452 238.33,122.29 244.3,116.463 C254.865,106.127 267.188,98.092 280.385,88.775 C270.862,97.37 256.733,127.5 264.918,140.518 C275.56,142.815 314.29,103.825 322.223,100.327 C355.297,85.75 347.415,115.365 368.78,112.265 C368.78,112.265 373.158,142.11 373.555,144.1 C376.74,135.345 400.36,134.53 400.36,134.53 C407.772,127.002 410.23,118.572 403.057,110.417 C407.48,113.517 421.32,115.353 425.685,114.652 C430.82,113.84 407.5,91.9 407.777,87.592" fill="#2A241D"/>
    </g>
    <path d="M320.77,250.342 C321.135,257.302 316.818,268.792 297.842,267.647 C286.823,266.985 283.268,258.605 282.47,249.165" fill="#F4DEC8"/>
    <path d="M300.44,268.98 C299.575,268.98 298.682,268.95 297.768,268.895 C287.84,268.298 282.275,261.695 281.225,249.27 L283.715,249.06 C284.658,260.21 289.305,265.883 297.918,266.4 C305.71,266.865 311.583,265.22 315.345,261.49 C319.54,257.325 319.603,251.958 319.523,250.408 L322.018,250.28 C322.273,255.107 320.432,259.962 317.105,263.263 C313.277,267.062 307.68,268.98 300.44,268.98" fill="#2C2E2D"/>
    <path d="M304.315,252.917 C257.348,252.917 228.608,222.945 223.39,168.525 L223.048,164.957 C222.038,154.562 221.768,151.77 222.06,139.237 L224.56,139.297 C224.27,151.68 224.513,154.182 225.535,164.715 L225.88,168.287 C230.958,221.25 258.812,250.417 304.315,250.417 C317.57,250.417 336.51,246.688 351.473,228.917 C365.353,212.438 379.46,178.667 367.842,111.387 L370.31,110.962 C382.085,179.19 367.608,213.64 353.388,230.527 C337.805,249.032 318.1,252.917 304.315,252.917" fill="#2C2E2D"/>
    <path d="M208.368,129.872 C208.273,126.643 206.277,120.79 207.625,114.62" fill="#F4DEC8"/>
    <path d="M207.118,129.908 C207.09,129.02 206.898,127.855 206.673,126.505 C206.14,123.298 205.413,118.9 206.405,114.353 L208.848,114.885 C207.958,118.965 208.613,122.92 209.14,126.098 C209.38,127.535 209.585,128.777 209.618,129.835 L207.118,129.908" fill="#2C2E2D"/>
    <path d="M265.478,160.128 C266.103,166.658 262.188,172.433 256.735,173.023 C251.277,173.62 246.348,168.803 245.723,162.278 C245.095,155.743 249.01,149.958 254.465,149.37 C259.92,148.775 264.853,153.59 265.478,160.128" fill="#1D1F1E"/>
    <path d="M255.375,150.57 C255.12,150.57 254.86,150.585 254.6,150.612 C249.827,151.125 246.405,156.305 246.965,162.16 C247.515,167.892 251.842,172.29 256.6,171.78 C261.367,171.265 264.793,166.09 264.235,160.247 C263.715,154.82 259.825,150.57 255.375,150.57 z M255.82,174.322 C250.005,174.322 245.128,169.195 244.477,162.397 C243.785,155.187 248.205,148.785 254.33,148.127 C260.57,147.462 266.033,152.797 266.723,160.01 C267.413,167.207 262.992,173.602 256.87,174.265 C256.517,174.302 256.168,174.322 255.82,174.322" fill="#2C2E2D"/>
    <path d="M352.885,160.13 C353.52,166.658 349.598,172.433 344.133,173.03 C338.68,173.618 333.737,168.803 333.11,162.278 C332.492,155.748 336.42,149.963 341.875,149.37 C347.327,148.778 352.263,153.59 352.885,160.13" fill="#1D1F1E"/>
    <path d="M342.78,150.57 C342.525,150.57 342.268,150.585 342.008,150.613 C337.235,151.13 333.8,156.312 334.355,162.163 C334.903,167.89 339.238,172.3 343.998,171.788 C348.778,171.265 352.208,166.09 351.64,160.25 C351.125,154.82 347.233,150.57 342.78,150.57 z M343.23,174.327 C337.405,174.327 332.518,169.198 331.865,162.398 C331.183,155.195 335.615,148.793 341.74,148.128 C347.988,147.45 353.44,152.8 354.13,160.01 C354.828,167.205 350.405,173.603 344.268,174.273 C343.92,174.31 343.573,174.327 343.23,174.327" fill="#2C2E2D"/>
    <path d="M299.438,203.88 C296.163,201.655 292.503,200.31 288.96,199.008 C283.55,197.02 278.443,195.143 275.8,190.417 L274.99,188.967 L276.608,188.59 C292.378,184.92 293.73,176.585 294.76,162.17 L297.253,162.348 C296.205,177.003 294.408,186.37 278.923,190.585 C281.318,193.538 285.303,195 289.823,196.663 C293.505,198.015 297.312,199.415 300.843,201.81 L299.438,203.88" fill="#2C2E2D"/>
    <path d="M362.482,185.128 C362.405,189.725 356.122,193.458 348.415,193.45 C340.727,193.452 334.515,189.72 334.565,185.13 C334.635,180.525 340.932,176.79 348.63,176.792 C356.34,176.785 362.537,180.523 362.482,185.128" fill="#D5939B"/>
    <path d="M265.05,184.948 C264.99,189.99 258.08,194.083 249.642,194.083 C241.185,194.083 234.39,189.988 234.457,184.945 C234.517,179.908 241.417,175.825 249.872,175.82 C258.322,175.815 265.125,179.908 265.05,184.948" fill="#D5939B"/>
    <g clip-path="url(#Clip_1)">
      <path d="M265.893,142.262 C265.455,142.262 265.043,142.223 264.655,142.137 L264.14,142.027 L263.86,141.583 C257.005,130.68 264.81,108.465 273.525,95.503 C263.283,102.653 253.615,109.498 245.173,117.755 C243.693,119.2 241.833,121.543 239.865,124.022 C233.648,131.855 225.91,141.605 218.342,139.405 L217.7,139.22 L217.497,138.577 C214.413,128.67 219.148,107.092 223.645,99.303 C230.913,86.738 247.975,73.143 259.62,67.755 L260.67,70.025 C249.325,75.275 232.61,88.795 225.81,100.555 C221.73,107.618 217.342,127.91 219.693,137.15 C225.515,138.062 232.655,129.088 237.908,122.47 C240.012,119.815 241.833,117.522 243.428,115.965 C252.38,107.208 262.603,100.075 273.425,92.522 C275.48,91.088 277.56,89.635 279.663,88.153 L281.223,90.1 C271.775,98.628 258.635,127.26 265.685,139.765 C272.557,140.223 291.63,123.96 304.39,113.11 C312.435,106.275 318.788,100.873 321.717,99.58 C341.733,90.76 347.753,97.858 353.068,104.118 C356.948,108.688 360.31,112.632 368.6,111.428 L368.96,113.9 C359.26,115.315 355.155,110.438 351.16,105.735 C345.95,99.6 341.027,93.803 322.728,101.868 C320.13,103.013 313.587,108.575 306.013,115.015 C287.915,130.4 273.337,142.262 265.893,142.262" fill="#2C2E2D"/>
      <path d="M401.25,135.805 L399.47,134.053 C407.275,126.123 408.2,118.625 402.23,111.75 C401.485,111.208 400.943,110.618 400.665,109.98 L402.688,108.59 C403.172,109.065 403.628,109.548 404.05,110.035 C407.935,112.44 420.42,114.42 425.117,113.868 C424.538,111.845 419.48,105.863 416.057,101.812 C410.055,94.708 406.38,90.235 406.53,87.91 C407.905,66.255 403.345,50.668 393.35,42.838 C385.83,36.948 375.43,35.853 363.27,39.685 L362.105,40.05 L361.71,38.895 C350.365,5.643 326.935,4.223 311.432,3.285 C262.255,0.323 233.867,17.838 218.71,33.058 C205.447,46.375 200.237,60.28 200.507,64.433 C200.78,68.738 194.27,74.698 187.137,80.575 C195.02,78.013 208.15,74.045 214.03,72.373 C214.797,72.08 215.57,71.865 216.342,71.743 L216.855,74.188 C216.37,74.312 215.667,74.507 214.792,74.757 C206.432,78.068 197.995,93.415 197.45,101.882 L197.355,103.245 C196.94,109.07 195.97,122.708 199.895,130.088 L197.687,131.262 C193.425,123.248 194.395,109.618 194.86,103.068 L194.952,101.72 C195.412,94.61 200.63,83.495 207.327,76.948 C198.047,79.723 185.432,83.63 182.617,84.77 C181.635,85.17 180.93,85.035 180.535,84.365 C179.885,83.268 180.357,82.882 184.025,79.893 C188.282,76.425 198.247,68.305 198.012,64.592 C197.66,59.18 203.435,44.855 216.937,31.293 C232.457,15.708 261.462,-2.245 311.555,0.788 C327.575,1.758 351.652,3.215 363.68,36.948 C376.16,33.293 386.938,34.64 394.895,40.87 C405.565,49.233 410.452,65.553 409.025,88.07 C408.995,89.583 414.395,95.97 417.967,100.2 C425.41,109.003 428.355,112.808 427.54,115.005 C427.285,115.693 426.677,116.16 425.88,116.285 C422.682,116.798 413.158,115.998 406.723,113.865 C410.4,120.772 408.557,128.38 401.25,135.805" fill="#2C2E2D"/>
    </g>
    <path d="M250.255,267.31 L247.87,266.552 C248.635,264.152 255.478,243.015 261.025,239.595 L262.337,241.725 C258.303,244.21 252.248,261.035 250.255,267.31" fill="#2C2E2D"/>
    <path d="M359.385,262.675 C353.997,254.327 344.85,241.35 341.728,239.815 L342.83,237.57 C347.573,239.902 360.077,259.135 361.485,261.32 L359.385,262.675" fill="#2C2E2D"/>
    <path d="M308.288,221.04 C308.288,224.555 304.17,227.403 299.09,227.403 C294.015,227.403 289.897,224.555 289.897,221.04 C289.897,217.525 294.015,214.678 299.09,214.678 C304.17,214.678 308.288,217.525 308.288,221.04" fill="#C49DB6"/>
    <path d="M299.09,215.928 C294.785,215.928 291.147,218.268 291.147,221.04 C291.147,223.81 294.785,226.153 299.09,226.153 C303.397,226.153 307.038,223.81 307.038,221.04 C307.038,218.268 303.397,215.928 299.09,215.928 z M299.09,228.653 C293.235,228.653 288.647,225.308 288.647,221.04 C288.647,216.77 293.235,213.428 299.09,213.428 C304.948,213.428 309.538,216.77 309.538,221.04 C309.538,225.308 304.948,228.653 299.09,228.653" fill="#2C2E2D"/>
    <path d="M573.625,252.145 C531.602,228.798 337.34,208.253 297.185,282.965 C297.185,314.718 297.185,497.305 297.185,497.305 C320.527,487.03 523.193,481.898 536.268,498.705 C540.005,469.755 573.625,252.145 573.625,252.145" fill="#E9E8E3"/>
    <path d="M431.728,486.552 C459.145,486.552 521.622,487.538 535.33,496.277 C540.08,461.293 569.982,267.538 572.255,252.825 C552.76,242.48 500.075,231.93 444.188,231.93 C400.152,231.93 322.747,238.613 298.435,283.283 L298.435,495.497 C315.217,489.953 379.337,486.552 431.728,486.552 z M537.122,501.84 L535.282,499.473 C530.282,493.045 490.603,489.052 431.728,489.052 C370.645,489.052 309.263,493.355 297.688,498.45 L295.935,499.22 L295.935,282.65 L296.082,282.375 C320.84,236.307 399.503,229.43 444.188,229.43 C501.228,229.43 555.102,240.425 574.232,251.053 L574.992,251.475 L574.86,252.335 C574.523,254.512 541.2,470.26 537.508,498.867 L537.122,501.84" fill="#2C2E2D"/>
    <path d="M20.73,252.145 C62.76,228.798 257.022,208.253 297.18,282.965 C297.18,314.718 297.18,497.305 297.18,497.305 C273.835,487.03 71.167,481.898 58.095,498.705 C54.357,469.755 20.73,252.145 20.73,252.145" fill="#E9E8E3"/>
    <path d="M22.1,252.825 C24.375,267.56 54.283,461.292 59.033,496.277 C72.738,487.537 135.215,486.552 162.635,486.552 C215.025,486.552 279.145,489.952 295.93,495.497 L295.93,283.282 C271.615,238.612 194.21,231.93 150.175,231.93 C94.285,231.93 41.6,242.48 22.1,252.825 z M57.24,501.842 L56.855,498.867 C53.163,470.26 19.833,254.512 19.495,252.335 L19.363,251.475 L20.125,251.052 C39.258,240.425 93.135,229.43 150.175,229.43 C194.86,229.43 273.522,236.307 298.28,282.375 L298.43,282.65 L298.43,499.22 L296.675,498.45 C285.103,493.355 223.717,489.052 162.635,489.052 C103.76,489.052 64.08,493.045 59.08,499.472 L57.24,501.842" fill="#2C2E2D"/>
    <path d="M572.693,261.485 C530.663,238.135 336.405,217.587 296.25,292.302 C296.25,324.055 296.25,506.635 296.25,506.635 C319.59,496.367 522.258,491.235 535.333,508.045 C539.068,479.092 572.693,261.485 572.693,261.485" fill="#E9E8E3"/>
    <path d="M430.765,495.887 C458.19,495.887 520.685,496.877 534.395,505.615 C539.143,470.632 569.048,276.9 571.323,262.165 C551.825,251.82 499.138,241.267 443.248,241.267 C399.215,241.267 321.813,247.95 297.5,292.617 L297.5,504.827 C314.28,499.287 378.385,495.887 430.765,495.887 z M536.19,511.18 L534.348,508.81 C529.345,502.382 489.655,498.387 430.765,498.387 C369.693,498.387 308.325,502.69 296.753,507.78 L295,508.552 L295,291.987 L295.148,291.71 C319.905,245.645 398.565,238.767 443.248,238.767 C500.29,238.767 554.168,249.762 573.3,260.392 L574.06,260.815 L573.927,261.675 C573.59,263.852 540.263,479.597 536.573,508.205 L536.19,511.18" fill="#2C2E2D"/>
    <path d="M19.797,261.485 C61.827,238.135 256.087,217.587 296.245,292.302 C296.245,324.055 296.245,506.635 296.245,506.635 C272.9,496.367 70.235,491.235 57.157,508.045 C53.422,479.092 19.797,261.485 19.797,261.485" fill="#E9E8E3"/>
    <path d="M21.167,262.165 C23.442,276.9 53.347,470.632 58.097,505.615 C71.808,496.877 134.303,495.887 161.725,495.887 C214.105,495.887 278.212,499.287 294.995,504.827 L294.995,292.617 C270.68,247.95 193.277,241.267 149.242,241.267 C93.353,241.267 40.667,251.82 21.167,262.165 z M56.302,511.18 L55.917,508.205 C52.228,479.597 18.9,263.852 18.562,261.675 L18.43,260.815 L19.192,260.392 C38.325,249.762 92.2,238.767 149.242,238.767 C193.928,238.767 272.585,245.645 297.345,291.71 L297.497,291.987 L297.497,508.552 L295.742,507.78 C284.168,502.69 222.798,498.387 161.725,498.387 C102.838,498.387 63.145,502.382 58.145,508.81 L56.302,511.18" fill="#2C2E2D"/>
    <path d="M575.96,267.085 C533.935,243.737 339.673,223.192 299.515,297.905 C299.515,329.658 299.515,512.24 299.515,512.24 C322.863,501.973 525.525,496.84 538.602,513.648 C542.338,484.695 575.96,267.085 575.96,267.085" fill="#E9E8E3"/>
    <path d="M434.042,501.492 C461.465,501.492 523.955,502.48 537.665,511.217 C542.41,476.235 572.315,282.5 574.59,267.765 C555.095,257.42 502.408,246.87 446.52,246.87 C402.485,246.87 325.08,253.552 300.765,298.223 L300.765,510.435 C317.55,504.892 381.662,501.492 434.042,501.492 z M539.46,516.782 L537.615,514.412 C532.612,507.985 492.927,503.992 434.042,503.992 C372.97,503.992 311.592,508.292 300.017,513.385 L298.265,514.157 L298.265,297.59 L298.415,297.315 C323.172,251.247 401.835,244.37 446.52,244.37 C503.56,244.37 557.435,255.365 576.568,265.992 L577.328,266.415 L577.195,267.275 C576.86,269.452 543.532,485.2 539.842,513.807 L539.46,516.782" fill="#2C2E2D"/>
    <path d="M23.067,267.085 C65.095,243.737 259.357,223.192 299.515,297.905 C299.515,329.658 299.515,512.24 299.515,512.24 C276.167,501.973 73.502,496.84 60.425,513.648 C56.692,484.695 23.067,267.085 23.067,267.085" fill="#E9E8E3"/>
    <path d="M24.435,267.765 C26.713,282.5 56.618,476.235 61.365,511.217 C75.075,502.48 137.562,501.492 164.988,501.492 C217.368,501.492 281.48,504.892 298.265,510.435 L298.265,298.223 C273.95,253.552 196.545,246.87 152.508,246.87 C96.62,246.87 43.935,257.42 24.435,267.765 z M59.57,516.782 L59.185,513.805 C55.498,485.2 22.168,269.452 21.83,267.275 L21.698,266.415 L22.46,265.992 C41.593,255.365 95.467,244.37 152.508,244.37 C197.193,244.37 275.855,251.247 300.617,297.315 L300.765,297.59 L300.765,514.157 L299.013,513.385 C287.438,508.292 226.06,503.992 164.988,503.992 C106.1,503.992 66.412,507.985 61.413,514.412 L59.57,516.782" fill="#2C2E2D"/>
    <path d="M553.517,290.62 C544.87,284.565 482.972,278.073 470.485,280.742 L469.44,275.853 C482.042,273.16 545.91,279.19 556.383,286.522 L553.517,290.62" fill="#7C8886"/>
    <path d="M552.583,305.33 C543.93,299.272 482.025,292.775 469.553,295.452 L468.503,290.562 C481.118,287.875 544.968,293.897 555.448,301.232 L552.583,305.33" fill="#7C8886"/>
    <path d="M549.78,320.038 C541.13,313.985 479.233,307.482 466.75,310.165 L465.7,305.275 C478.305,302.577 542.165,308.605 552.645,315.943 L549.78,320.038" fill="#7C8886"/>
    <path d="M548.845,334.75 C540.195,328.693 478.29,322.193 465.815,324.875 L464.765,319.982 C477.372,317.285 541.235,323.318 551.71,330.655 L548.845,334.75" fill="#7C8886"/>
    <path d="M548.845,349.46 C540.195,343.402 478.275,336.905 465.815,339.582 L464.765,334.693 C477.378,332.005 541.232,338.027 551.71,345.362 L548.845,349.46" fill="#7C8886"/>
    <path d="M545.938,366.88 C520.272,360.447 346.15,353.872 309.512,356.677 L309.132,351.693 C345.952,348.865 521.255,355.54 547.152,362.027 L545.938,366.88" fill="#7C8886"/>
    <path d="M545.938,381.59 C520.277,375.155 346.14,368.58 309.512,371.387 L309.132,366.4 C345.96,363.58 521.263,370.247 547.152,376.74 L545.938,381.59" fill="#7C8886"/>
    <path d="M193.302,377.4 C184.26,371.937 122.065,369.64 109.8,373.155 L108.422,368.347 C120.807,364.8 184.93,366.5 195.887,373.12 L193.302,377.4" fill="#7C8886"/>
    <path d="M193.368,392.138 C184.325,386.675 122.118,384.378 109.858,387.89 L108.483,383.085 C120.87,379.53 184.997,381.242 195.952,387.855 L193.368,392.138" fill="#7C8886"/>
    <path d="M191.567,407.01 C182.525,401.545 120.317,399.245 108.057,402.755 L106.68,397.95 C119.067,394.408 183.197,396.113 194.155,402.728 L191.567,407.01" fill="#7C8886"/>
    <path d="M191.633,421.742 C182.588,416.283 120.383,413.99 108.12,417.495 L106.743,412.69 C119.125,409.135 183.255,410.845 194.215,417.46 L191.633,421.742" fill="#7C8886"/>
    <path d="M192.622,436.418 C183.587,430.96 121.38,428.66 109.115,432.17 L107.737,427.365 C120.132,423.818 184.265,425.525 195.208,432.14 L192.622,436.418" fill="#7C8886"/>
    <path d="M430.458,430.195 C418.72,424.987 337.798,424.78 321.828,428.745 L320.622,423.89 C338.307,419.505 419.515,419.87 432.485,425.625 L430.458,430.195" fill="#7C8886"/>
    <path d="M430.413,444.957 C418.663,439.745 337.75,439.535 321.783,443.505 L320.578,438.652 C338.258,434.26 419.463,434.63 432.438,440.387 L430.413,444.957" fill="#7C8886"/>
    <path d="M427.965,459.905 C416.228,454.7 335.303,454.49 319.333,458.455 L318.125,453.6 C335.818,449.212 417.025,449.58 429.992,455.335 L427.965,459.905" fill="#7C8886"/>
    <path d="M427.918,474.665 C416.182,469.453 335.265,469.25 319.29,473.215 L318.085,468.362 C335.767,463.97 416.975,464.335 429.948,470.095 L427.918,474.665" fill="#7C8886"/>
    <path d="M429.08,489.328 C417.348,484.122 336.425,483.913 320.45,487.875 L319.245,483.023 C336.933,478.633 418.143,479.003 431.108,484.758 L429.08,489.328" fill="#7C8886"/>
    <path d="M273.93,296.065 C255.913,289.658 133.49,283.113 107.718,285.92 L107.178,280.95 C133.22,278.12 257.268,284.83 275.605,291.353 L273.93,296.065" fill="#7C8886"/>
    <path d="M272.085,310.775 C254.07,304.365 131.637,297.825 105.878,300.63 L105.335,295.66 C131.383,292.825 255.425,299.54 273.76,306.062 L272.085,310.775" fill="#7C8886"/>
    <path d="M266.575,325.485 C248.55,319.075 126.125,312.533 100.363,315.34 L99.82,310.37 C125.863,307.545 249.908,314.253 268.25,320.772 L266.575,325.485" fill="#7C8886"/>
    <path d="M264.733,340.19 C246.698,333.783 124.275,327.253 98.52,330.05 L97.978,325.08 C124.005,322.25 248.053,328.957 266.408,335.478 L264.733,340.19" fill="#7C8886"/>
    <path d="M264.733,354.903 C246.708,348.495 124.275,341.955 98.52,344.76 L97.978,339.788 C124.02,336.96 248.062,343.67 266.408,350.19 L264.733,354.903" fill="#7C8886"/>
    <path d="M330.93,336.673 L437.395,334.802 L443.003,271.293 L329.995,289.04 L330.93,336.673" fill="#7C8886"/>
    <path d="M75.84,452.48 L271.967,452.48 L271.967,493.575 L75.84,493.575 z" fill="#7C8886"/>
    <path d="M57.157,406.717 L92.647,406.717 L79.575,271.293 L44.085,271.293 L57.157,406.717" fill="#7C8886"/>
    <path d="M441.01,491.702 L517.59,494.975 L533.935,407.182 L450.815,397.378 L441.01,491.702" fill="#7C8886"/>
    <path d="M211.26,367.488 L267.297,367.488 L267.297,433.795 L211.26,433.795 z" fill="#7C8886"/>
    <path d="M540.737,320.622 C538.573,313.257 545.062,303.372 550.467,305.862 C563.325,305.522 589.087,303.842 590.455,326.295 C590.625,329.11 589.825,332.03 589.39,334.83 C588.527,340.442 586.29,351.127 585.763,356.527 C584.828,366.11 570.83,377.88 566.708,377.015 C562.287,376.102 544.357,377.325 538.975,372.995 C534.095,369.067 526.72,366.687 526.022,360.515 C525.6,356.8 527.253,350.785 534.107,351.015 C534.107,351.015 525.33,350.762 528.003,340.91 C529.135,336.752 533.532,336.65 533.532,336.65 C533.532,336.65 533.117,331.567 533.617,328.34 C534.117,325.107 540.737,320.622 540.737,320.622" fill="#F8E8DA"/>
    <path d="M534.28,337.587 C531.667,335.875 530.52,331.133 531.727,327.013 C533.05,322.485 536.707,319.86 541.763,319.807 C544.91,319.772 561.08,319.788 569.047,323.225 L568.055,325.52 C560.547,322.283 544.872,322.29 541.785,322.307 C536.48,322.363 534.71,325.717 534.125,327.712 C533.172,330.973 534.145,334.51 535.647,335.495 L534.28,337.587" fill="#2C2E2D"/>
    <g>
      <path d="M532.085,352.848 C530.89,352.848 529.665,352.21 528.588,351.012 C526.875,349.112 525.435,345.582 526.13,342.777 C526.83,339.96 530.208,335.625 533.445,335.402 C536.893,335.17 549.018,337.628 561.605,340.307 L564.938,341.012 L564.435,343.462 L561.085,342.753 C553.94,341.232 537.205,337.662 533.615,337.897 C531.8,338.02 529.09,341.223 528.555,343.38 C528.148,345.02 529.015,347.75 530.445,349.34 C531.07,350.033 531.725,350.397 532.198,350.342 L532.54,352.817 C532.393,352.837 532.237,352.848 532.085,352.848" fill="#2C2E2D"/>
      <path d="M568.3,378.408 C567.292,378.408 566.263,378.288 565.215,378.052 C564.033,377.783 561.562,377.587 558.705,377.36 C551.062,376.753 540.6,375.92 536.473,372.6 L535.172,371.568 C530.4,367.8 523.862,362.642 524.85,354.585 C524.985,353.487 525.552,352.568 526.495,351.925 C530.518,349.185 541.295,351.645 552.94,354.638 C555.333,355.255 557.398,355.785 558.737,356.048 L558.258,358.5 C556.848,358.225 554.747,357.685 552.318,357.06 C544.98,355.173 531.315,351.655 527.905,353.992 C527.555,354.23 527.378,354.508 527.33,354.888 C526.515,361.55 532.175,366.018 536.723,369.605 L538.04,370.652 C541.565,373.487 551.997,374.318 558.903,374.867 C561.98,375.112 564.408,375.307 565.768,375.615 C568.917,376.318 571.865,375.712 574.523,373.793 C579.753,370.015 582.74,362.035 583.307,356.22 C583.643,352.77 584.67,347.17 585.578,342.233 C586.117,339.298 586.628,336.527 586.948,334.457 C587.05,333.793 587.198,332.95 587.367,332.01 C587.89,329.073 588.605,325.048 588.468,323.043 C587.315,305.772 567.005,306.522 553.585,307.008 C552.5,307.048 551.465,307.085 550.503,307.112 C547.535,307.413 544.698,309.198 542.812,312.003 C540.78,315.02 540.143,318.785 541.11,322.07 L538.713,322.777 C537.538,318.785 538.295,314.235 540.735,310.605 C543.04,307.18 546.542,305 550.343,304.617 C551.39,304.587 552.415,304.55 553.495,304.51 C567.018,304.02 589.648,303.185 590.963,322.875 C591.12,325.185 590.405,329.21 589.828,332.448 C589.665,333.365 589.518,334.19 589.417,334.837 C589.095,336.927 588.58,339.72 588.035,342.685 C587.138,347.575 586.12,353.115 585.797,356.462 C585.158,363.033 581.875,371.565 575.987,375.818 C573.603,377.54 571.028,378.408 568.3,378.408" fill="#2C2E2D"/>
    </g>
    <path d="M50.243,320.622 C52.41,313.257 45.92,303.372 40.52,305.862 C27.66,305.522 1.895,303.842 0.53,326.292 C0.36,329.11 1.155,332.03 1.59,334.83 C2.455,340.442 4.695,351.127 5.22,356.527 C6.153,366.11 20.155,377.88 24.278,377.015 C28.698,376.102 46.625,377.325 52.007,372.995 C56.89,369.067 64.265,366.687 64.963,360.515 C65.382,356.8 63.73,350.785 56.877,351.015 C56.877,351.015 65.655,350.762 62.98,340.91 C61.85,336.752 57.45,336.65 57.45,336.65 C57.45,336.65 57.868,331.567 57.368,328.337 C56.868,325.107 50.243,320.622 50.243,320.622" fill="#F8E8DA"/>
    <path d="M56.7,337.588 L55.33,335.495 C56.838,334.51 57.81,330.973 56.855,327.713 C56.273,325.718 54.5,322.363 49.198,322.308 C46.113,322.275 30.433,322.283 22.928,325.52 L21.935,323.225 C29.905,319.785 46.05,319.78 49.222,319.808 C54.275,319.86 57.93,322.483 59.255,327.01 C60.463,331.13 59.315,335.875 56.7,337.588" fill="#2C2E2D"/>
    <g clip-path="url(#Clip_2)">
      <path d="M58.9,352.848 C58.747,352.848 58.595,352.837 58.445,352.818 L58.79,350.342 C59.267,350.405 59.917,350.033 60.54,349.34 C61.97,347.747 62.832,345.02 62.425,343.38 C61.892,341.22 59.185,338.02 57.362,337.898 C53.795,337.633 37.04,341.233 29.887,342.755 L26.552,343.462 L26.047,341.013 L29.367,340.31 C41.96,337.628 54.072,335.158 57.53,335.402 C60.778,335.625 64.158,339.962 64.853,342.78 C65.55,345.578 64.107,349.11 62.397,351.013 C61.32,352.21 60.095,352.848 58.9,352.848" fill="#2C2E2D"/>
      <path d="M22.683,378.408 C19.955,378.408 17.383,377.542 14.998,375.82 C9.11,371.568 5.828,363.035 5.185,356.462 C4.86,353.107 3.84,347.547 2.938,342.64 C2.398,339.695 1.885,336.917 1.563,334.837 C1.463,334.19 1.318,333.365 1.155,332.445 C0.58,329.207 -0.132,325.18 0.023,322.872 C1.338,303.19 23.973,304.012 37.493,304.51 C38.57,304.55 39.595,304.587 40.553,304.612 C44.445,305 47.948,307.182 50.25,310.61 C52.693,314.24 53.448,318.788 52.27,322.777 L49.873,322.07 C50.84,318.788 50.205,315.025 48.178,312.005 C46.29,309.2 43.453,307.413 40.395,307.105 C39.523,307.085 38.488,307.047 37.4,307.008 C23.973,306.522 3.67,305.775 2.518,323.04 C2.383,325.042 3.095,329.07 3.615,332.01 C3.783,332.95 3.933,333.792 4.035,334.457 C4.355,336.517 4.86,339.267 5.398,342.19 C6.308,347.145 7.34,352.76 7.673,356.22 C8.24,362.038 11.233,370.02 16.46,373.792 C19.12,375.715 22.063,376.318 25.213,375.615 C26.575,375.307 29.005,375.112 32.078,374.867 C38.983,374.318 49.418,373.49 52.94,370.652 L54.255,369.61 C58.805,366.02 64.47,361.552 63.655,354.887 C63.608,354.508 63.43,354.23 63.08,353.992 C59.66,351.652 46.003,355.17 38.665,357.06 C36.235,357.685 34.135,358.225 32.723,358.5 L32.245,356.047 C33.583,355.785 35.65,355.253 38.043,354.637 C49.685,351.645 60.47,349.182 64.49,351.925 C65.433,352.568 66,353.487 66.135,354.585 C67.123,362.645 60.58,367.805 55.805,371.573 L54.508,372.6 C50.383,375.92 39.918,376.753 32.278,377.36 C29.42,377.587 26.953,377.783 25.765,378.052 C24.718,378.288 23.69,378.408 22.683,378.408" fill="#2C2E2D"/>
      <path d="M149.025,742.5 C135.817,742.5 116.217,740.95 111.707,728.857 C108.63,720.61 106.26,709 112.445,700.542 C118.032,692.895 129.505,689.44 146.537,690.222 C155.232,687.457 161.197,684.577 166.462,682.032 C173.025,678.865 178.692,676.125 187.495,674.512 L187.942,676.975 C179.475,678.522 173.947,681.193 167.55,684.285 C162.165,686.887 156.062,689.835 147.077,692.672 L146.862,692.742 L146.64,692.73 C130.38,691.935 119.547,695.06 114.462,702.015 C108.935,709.577 111.187,720.31 114.047,727.982 C118.86,740.878 144.952,740.182 156.087,739.883 L156.46,739.872 C165.465,739.642 172.74,737.65 181.165,735.345 L182.255,735.047 C185.89,734.057 192.115,733.112 199.325,732.015 C213.437,729.872 232.767,726.935 237.352,722.38 C247.352,712.438 248.547,687.02 239.595,674.667 L241.62,673.202 C251.35,686.628 250.04,713.292 239.115,724.152 C233.952,729.287 215.755,732.05 199.697,734.487 C192.567,735.57 186.41,736.505 182.912,737.46 L181.825,737.758 C173.242,740.107 165.832,742.133 156.525,742.372 L156.152,742.383 C154.17,742.435 151.73,742.5 149.025,742.5" fill="#2C2E2D"/>
      <path d="M343.195,742.07 C323.052,742.07 302.628,738.827 294.258,726.222 C285.367,712.842 294.095,691.62 300.467,676.127 C301.145,674.485 301.792,672.905 302.395,671.405 L304.712,672.332 C304.112,673.84 303.457,675.427 302.78,677.08 C296.62,692.055 288.185,712.562 296.34,724.84 C309.658,744.897 357.335,739.527 380.25,736.952 L382.745,736.672 C390.527,735.807 395.955,732.5 398.44,727.105 C401.485,720.495 399.845,711.457 394.055,702.935 C388.112,694.192 373.98,689.717 352.052,689.632 L352.062,687.132 C374.865,687.22 389.688,692.065 396.12,701.527 C402.41,710.785 404.128,720.737 400.712,728.152 C398.71,732.497 394.015,737.937 383.022,739.157 L380.527,739.435 C370.952,740.515 357.142,742.07 343.195,742.07" fill="#2C2E2D"/>
    </g>
    <path d="M373.543,690.76 C373.223,689.505 372.875,687.978 372.497,686.312 C371.31,681.08 369.685,673.918 367.508,670.475 L369.622,669.143 C372.025,672.945 373.64,680.05 374.932,685.76 C375.307,687.398 375.645,688.898 375.965,690.135 L373.543,690.76" fill="#2C2E2D"/>
    <path d="M304.947,695.77 L304.23,693.378 C314.552,690.283 337.555,688.255 338.533,688.168 L338.747,690.658 C338.512,690.678 315.022,692.75 304.947,695.77" fill="#2C2E2D"/>
    <path d="M171.36,705.413 C171.16,704.978 166.255,694.728 150.75,693.758 L150.905,691.263 C167.97,692.33 173.413,703.885 173.635,704.375 L171.36,705.413" fill="#2C2E2D"/>
  </g>
</svg>
